<?xml version="1.0" encoding="UTF-8"?>
<!DOCTYPE svg PUBLIC "-//W3C//DTD SVG 1.1//EN" "http://www.w3.org/Graphics/SVG/1.1/DTD/svg11.dtd">
<!-- Creator: CorelDRAW X6 -->
<svg xmlns="http://www.w3.org/2000/svg" xml:space="preserve" width="35.2508mm" height="24.2509mm" version="1.1" style="shape-rendering:geometricPrecision; text-rendering:geometricPrecision; image-rendering:optimizeQuality; fill-rule:evenodd; clip-rule:evenodd"
viewBox="0 0 530 364"
 xmlns:xlink="http://www.w3.org/1999/xlink">
 <defs>
  <style type="text/css">
   <![CDATA[
    .fil0 {fill:none}
    .fil1 {fill:#FEFEFE;fill-rule:nonzero}
   ]]>
  </style>
 </defs>
 <g id="Слой_x0020_1">
  <metadata id="CorelCorpID_0Corel-Layer"/>
  <polyline class="fil0" points="9,144 9,9 144,9 "/>
  <path class="fil1" d="M19 144c0,6 -4,10 -10,10 -5,0 -9,-4 -9,-10l0 -135c0,-5 4,-9 9,-9l135 0c6,0 10,4 10,9 0,6 -4,10 -10,10l-125 0 0 125z"/>
  <polyline class="fil0" points="520,144 520,9 385,9 "/>
  <path class="fil1" d="M530 144c0,6 -5,10 -10,10 -5,0 -9,-4 -9,-10l0 -125 -126 0c-5,0 -9,-4 -9,-10 0,-5 4,-9 9,-9l135 0c5,0 10,4 10,9l0 135z"/>
  <polyline class="fil0" points="9,220 9,355 144,355 "/>
  <path class="fil1" d="M0 220c0,-5 4,-10 9,-10 6,0 10,5 10,10l0 125 125 0c6,0 10,5 10,10 0,5 -4,9 -10,9l-135 0c-5,0 -9,-4 -9,-9l0 -135z"/>
  <polyline class="fil0" points="520,220 520,355 385,355 "/>
  <path class="fil1" d="M511 220c0,-5 4,-10 9,-10 5,0 10,5 10,10l0 135c0,5 -5,9 -10,9l-135 0c-5,0 -9,-4 -9,-9 0,-5 4,-10 9,-10l126 0 0 -125z"/>
  <path class="fil1" d="M149 181c40,-51 81,-76 124,-76 43,-1 86,25 129,76 3,4 3,9 0,13 -43,51 -86,76 -129,76 -43,0 -84,-26 -124,-77 -3,-3 -3,-8 0,-12zm124 -58c-35,1 -70,22 -105,64 35,43 70,64 105,64 35,0 72,-21 109,-64 -37,-43 -74,-64 -109,-64z"/>
  <path class="fil1" d="M276 135c14,0 27,5 37,15l0 0 0 0 0 0c9,10 15,23 15,37 0,15 -6,28 -15,38l0 0 0 0 0 0c-10,9 -23,15 -37,15 -15,0 -28,-6 -38,-15l0 0 0 0 0 0c-9,-10 -15,-23 -15,-38 0,-14 6,-27 15,-37 0,0 1,0 1,-1 9,-9 22,-14 37,-14zm23 28c-6,-6 -14,-10 -23,-10 -10,0 -18,4 -24,10l0 0c-7,7 -10,15 -10,24 0,10 3,18 10,24l0 0c6,6 14,10 24,10 9,0 17,-4 23,-10l0 0c7,-6 10,-14 10,-24 0,-9 -3,-18 -10,-24l0 0z"/>
 </g>
</svg>
