<?xml version="1.0" encoding="UTF-8"?>
<!DOCTYPE svg PUBLIC "-//W3C//DTD SVG 1.1//EN" "http://www.w3.org/Graphics/SVG/1.1/DTD/svg11.dtd">
<!-- Creator: CorelDRAW X6 -->
<svg xmlns="http://www.w3.org/2000/svg" xml:space="preserve" width="50mm" height="50.9836mm" version="1.1" style="shape-rendering:geometricPrecision; text-rendering:geometricPrecision; image-rendering:optimizeQuality; fill-rule:evenodd; clip-rule:evenodd"
viewBox="0 0 5104 5204"
 xmlns:xlink="http://www.w3.org/1999/xlink">
 <defs>
  <style type="text/css">
   <![CDATA[
    .fil0 {fill:#6CAB92}
    .fil1 {fill:#6CAB92;fill-rule:nonzero}
   ]]>
  </style>
 </defs>
 <g id="Слой_x0020_1">
  <metadata id="CorelCorpID_0Corel-Layer"/>
  <g id="_541889024">
   <path class="fil0" d="M1676 2511c0,-202 104,-389 233,-529 48,-53 161,-125 228,-157 275,-135 636,-91 872,115 22,19 31,21 52,42 290,290 314,790 42,1101 -19,21 -21,30 -42,52 -58,58 -153,120 -228,157 -144,70 -235,75 -395,75 -296,0 -555,-199 -687,-461 -72,-143 -75,-234 -75,-395zm-433 47c0,254 109,600 285,788 111,119 102,121 243,227 465,349 1167,283 1591,-138 226,-225 364,-551 364,-886 0,-262 -122,-608 -289,-783 -30,-31 -44,-53 -75,-85 -788,-783 -2119,-215 -2119,877z"/>
   <path class="fil0" d="M3463 1270c0,227 251,381 449,280 319,-162 158,-590 -101,-590 -152,0 -254,42 -320,188 -10,22 -28,91 -28,122z"/>
   <path class="fil1" d="M1399 0l2306 0c385,0 735,157 988,411 253,253 411,603 411,988l0 2406c0,385 -158,735 -411,988 -253,254 -603,411 -988,411l-2306 0c-385,0 -735,-157 -988,-411 -254,-253 -411,-603 -411,-988l0 -2406c0,-385 157,-735 411,-988 253,-254 603,-411 988,-411zm2306 315l-2306 0c-298,0 -569,122 -766,318 -196,197 -318,468 -318,766l0 2406c0,298 122,569 318,766 197,196 468,319 766,319l2306 0c298,0 569,-123 766,-319 196,-197 318,-468 318,-766l0 -2406c0,-298 -122,-569 -318,-766 -197,-196 -468,-318 -766,-318z"/>
  </g>
 </g>
</svg>
