<?xml version="1.0" encoding="UTF-8"?>
<!DOCTYPE svg PUBLIC "-//W3C//DTD SVG 1.1//EN" "http://www.w3.org/Graphics/SVG/1.1/DTD/svg11.dtd">
<!-- Creator: CorelDRAW X6 -->
<svg xmlns="http://www.w3.org/2000/svg" xml:space="preserve" width="50mm" height="50.9836mm" version="1.1" style="shape-rendering:geometricPrecision; text-rendering:geometricPrecision; image-rendering:optimizeQuality; fill-rule:evenodd; clip-rule:evenodd"
viewBox="0 0 904 922"
 xmlns:xlink="http://www.w3.org/1999/xlink">
 <defs>
  <style type="text/css">
   <![CDATA[
    .fil1 {fill:#F1A511}
    .fil0 {fill:#F1A511;fill-rule:nonzero}
   ]]>
  </style>
 </defs>
 <g id="Слой_x0020_1">
  <metadata id="CorelCorpID_0Corel-Layer"/>
  <g id="_554859168">
   <path class="fil0" d="M248 0l408 0c68,0 130,28 175,73 45,45 73,107 73,175l0 426c0,68 -28,130 -73,175 -45,45 -107,73 -175,73l-408 0c-68,0 -130,-28 -175,-73 -45,-45 -73,-107 -73,-175l0 -426c0,-68 28,-130 73,-175 45,-45 107,-73 175,-73zm408 56l-408 0c-53,0 -101,21 -136,56 -35,35 -56,83 -56,136l0 426c0,53 21,101 56,136 35,34 83,56 136,56l408 0c53,0 101,-22 136,-56 35,-35 56,-83 56,-136l0 -426c0,-53 -21,-101 -56,-136 -35,-35 -83,-56 -136,-56z"/>
   <path class="fil1" d="M129 285c0,13 7,36 12,49 6,14 11,29 18,43l13 27c7,14 14,26 22,39 9,17 20,34 31,50 2,2 3,3 4,6l22 29c2,2 3,3 5,5 1,2 3,3 5,6l9 10c7,7 14,14 22,19 9,8 19,15 29,22l19 11c13,8 28,13 43,17 22,7 81,15 96,-2 5,-5 4,-13 4,-22l0 -53c0,-10 1,-17 7,-21 5,-3 16,-2 22,0 18,7 32,20 46,33 7,7 14,13 20,20 2,1 2,2 3,3l7 7c1,2 2,2 3,4l9 10c2,2 2,2 3,4 1,1 2,2 4,3 1,1 1,2 3,4 2,2 4,4 6,6 9,7 15,12 29,12l65 0c7,0 12,-1 17,-4 17,-10 1,-38 -7,-49l-14 -18c-2,-3 -5,-6 -7,-9 -1,-2 -2,-3 -4,-4l-7 -9c-11,-14 -23,-26 -35,-38 -38,-37 -33,-33 -9,-69l34 -52c13,-21 26,-43 37,-66 2,-5 7,-19 7,-26 0,-11 -8,-15 -18,-15l-71 0c-25,0 -28,23 -37,40 -11,22 -22,43 -35,63 -7,12 -15,24 -24,35 -1,2 -2,4 -4,5l-7 8c-1,2 -1,2 -2,3 -3,4 -12,12 -15,14 -4,3 -9,6 -15,6 -14,0 -11,-31 -11,-40l0 -101c0,-18 1,-33 -17,-33l-107 0c-8,0 -15,5 -16,13 -1,12 15,22 21,39 3,7 5,17 5,25l0 106c0,22 -12,22 -25,12 -5,-4 -10,-9 -13,-13 -1,-2 -2,-2 -3,-3 -11,-14 -21,-29 -30,-45 -3,-4 -5,-9 -8,-13 -1,-2 -2,-5 -3,-7 -6,-9 -11,-22 -16,-32 -7,-16 -14,-33 -20,-49 -5,-16 -11,-33 -31,-33l-70 0c-12,0 -21,5 -21,18z"/>
  </g>
 </g>
</svg>
