<?xml version="1.0" encoding="UTF-8"?>
<!DOCTYPE svg PUBLIC "-//W3C//DTD SVG 1.1//EN" "http://www.w3.org/Graphics/SVG/1.1/DTD/svg11.dtd">
<!-- Creator: CorelDRAW X6 -->
<svg xmlns="http://www.w3.org/2000/svg" xml:space="preserve" width="50mm" height="50.9836mm" version="1.1" style="shape-rendering:geometricPrecision; text-rendering:geometricPrecision; image-rendering:optimizeQuality; fill-rule:evenodd; clip-rule:evenodd"
viewBox="0 0 4827 4922"
 xmlns:xlink="http://www.w3.org/1999/xlink">
 <defs>
  <style type="text/css">
   <![CDATA[
    .fil1 {fill:#6CAB92}
    .fil0 {fill:#6CAB92;fill-rule:nonzero}
   ]]>
  </style>
 </defs>
 <g id="Слой_x0020_1">
  <metadata id="CorelCorpID_0Corel-Layer"/>
  <g id="_237921208">
   <path class="fil0" d="M1323 0l2181 0c364,0 695,149 935,388 239,240 388,571 388,935l0 2276c0,364 -149,695 -388,935 -240,239 -571,388 -935,388l-2181 0c-364,0 -695,-149 -935,-388 -239,-240 -388,-571 -388,-935l0 -2276c0,-364 149,-695 388,-935 240,-239 571,-388 935,-388zm2181 298l-2181 0c-282,0 -538,115 -724,301 -186,186 -301,442 -301,724l0 2276c0,282 115,538 301,724 186,186 442,302 724,302l2181 0c282,0 538,-116 724,-302 186,-186 302,-442 302,-724l0 -2276c0,-282 -116,-538 -302,-724 -186,-186 -442,-301 -724,-301z"/>
   <path class="fil1" d="M691 1521c0,70 38,195 63,261 30,77 60,156 93,231l72 146c36,73 74,140 115,209 53,90 109,179 169,263 8,11 15,20 22,32l116 155c9,10 17,19 25,28 8,11 16,19 26,30l52 57c36,35 73,71 113,102 51,40 102,79 156,115l102 60c73,40 152,67 231,93 117,37 432,79 513,-14 24,-26 23,-69 23,-118l0 -283c0,-50 2,-90 32,-109 28,-17 89,-11 118,0 97,36 175,107 249,176 36,33 73,68 107,104 7,8 9,12 16,20l34 36c6,7 12,12 18,18l50 56c8,8 9,11 16,19 6,7 12,11 18,18 8,8 9,11 16,19 11,13 23,24 36,35 48,36 75,64 150,64l351 0c36,0 65,-7 88,-20 94,-54 7,-203 -38,-263l-72 -98c-13,-17 -25,-31 -38,-47 -7,-9 -12,-15 -19,-23l-41 -48c-55,-71 -123,-136 -186,-200 -201,-201 -176,-179 -48,-371l181 -275c72,-112 142,-230 196,-351 13,-27 42,-106 42,-142 0,-58 -47,-82 -100,-82l-378 0c-132,0 -151,123 -198,217 -58,116 -114,229 -184,337 -41,64 -82,127 -129,186 -8,10 -14,18 -22,28l-37 43c-6,6 -6,8 -12,14 -18,19 -64,62 -82,74 -21,15 -46,32 -78,32 -77,0 -56,-164 -56,-213l0 -542c0,-94 1,-176 -94,-176l-569 0c-44,0 -80,31 -86,73 -8,60 77,116 112,208 12,33 27,90 27,134l0 566c0,115 -65,115 -135,62 -25,-20 -51,-45 -71,-71 -5,-7 -8,-9 -13,-16 -59,-75 -112,-155 -161,-237 -15,-24 -27,-48 -41,-71 -7,-13 -11,-24 -19,-37 -29,-48 -60,-119 -84,-172 -38,-86 -77,-173 -106,-262 -28,-84 -59,-177 -165,-177l-374 0c-67,0 -112,30 -112,97z"/>
  </g>
 </g>
</svg>
