<?xml version="1.0" encoding="UTF-8"?>
<!DOCTYPE svg PUBLIC "-//W3C//DTD SVG 1.1//EN" "http://www.w3.org/Graphics/SVG/1.1/DTD/svg11.dtd">
<!-- Creator: CorelDRAW X6 -->
<svg xmlns="http://www.w3.org/2000/svg" xml:space="preserve" width="50mm" height="50.9836mm" version="1.1" style="shape-rendering:geometricPrecision; text-rendering:geometricPrecision; image-rendering:optimizeQuality; fill-rule:evenodd; clip-rule:evenodd"
viewBox="0 0 631 643"
 xmlns:xlink="http://www.w3.org/1999/xlink">
 <defs>
  <style type="text/css">
   <![CDATA[
    .fil0 {fill:#F1A511}
    .fil1 {fill:#F1A511;fill-rule:nonzero}
   ]]>
  </style>
 </defs>
 <g id="Слой_x0020_1">
  <metadata id="CorelCorpID_0Corel-Layer"/>
  <g id="_237025952">
   <path class="fil0" d="M169 311c0,-136 167,-205 263,-108 125,126 -27,325 -177,248 -2,-1 -16,-10 -16,-10 -8,0 -53,16 -60,19 10,-44 25,-45 11,-69 -14,-24 -21,-46 -21,-80zm-32 -10c0,92 29,92 23,115 -3,14 -10,31 -15,45 -5,14 -13,34 -14,47 14,-3 28,-9 43,-14 16,-5 32,-10 46,-15 28,-8 26,19 115,19 88,0 175,-86 175,-175 0,-62 -12,-99 -55,-142 -122,-122 -318,-24 -318,120z"/>
   <path class="fil0" d="M226 269c0,38 30,72 48,93 9,10 26,22 40,30 22,12 40,17 65,17 21,0 42,-22 42,-44 0,-10 -38,-27 -48,-29 -9,6 -16,16 -23,26 -27,-7 -67,-37 -73,-64 23,-34 23,-8 8,-59 -6,-20 -6,-18 -30,-18 -15,0 -29,31 -29,48z"/>
  </g>
  <path class="fil1" d="M173 0l285 0c48,0 91,19 122,51 31,31 51,74 51,122l0 297c0,48 -20,91 -51,122 -31,32 -74,51 -122,51l-285 0c-48,0 -91,-19 -122,-51 -32,-31 -51,-74 -51,-122l0 -297c0,-48 19,-91 51,-122 31,-32 74,-51 122,-51zm285 39l-285 0c-37,0 -70,15 -95,39 -24,25 -39,58 -39,95l0 297c0,37 15,71 39,95 25,24 58,39 95,39l285 0c37,0 70,-15 95,-39 24,-24 39,-58 39,-95l0 -297c0,-37 -15,-70 -39,-95 -25,-24 -58,-39 -95,-39z"/>
 </g>
</svg>
