<?xml version="1.0" encoding="UTF-8"?>
<!DOCTYPE svg PUBLIC "-//W3C//DTD SVG 1.1//EN" "http://www.w3.org/Graphics/SVG/1.1/DTD/svg11.dtd">
<!-- Creator: CorelDRAW X6 -->
<svg xmlns="http://www.w3.org/2000/svg" xml:space="preserve" width="50mm" height="50.9836mm" version="1.1" style="shape-rendering:geometricPrecision; text-rendering:geometricPrecision; image-rendering:optimizeQuality; fill-rule:evenodd; clip-rule:evenodd"
viewBox="0 0 1525 1555"
 xmlns:xlink="http://www.w3.org/1999/xlink">
 <defs>
  <style type="text/css">
   <![CDATA[
    .fil0 {fill:#6CAB92}
    .fil1 {fill:#6CAB92;fill-rule:nonzero}
   ]]>
  </style>
 </defs>
 <g id="Слой_x0020_1">
  <metadata id="CorelCorpID_0Corel-Layer"/>
  <g id="_238081016">
   <path class="fil0" d="M408 751c0,-327 404,-495 637,-260 302,303 -66,785 -429,598 -6,-2 -38,-23 -38,-23 -20,0 -129,38 -146,46 24,-106 62,-109 28,-167 -34,-59 -52,-112 -52,-194zm-77 -23c0,222 70,222 56,278 -8,33 -25,74 -37,109 -11,33 -31,80 -34,113 35,-9 68,-22 105,-34 39,-13 76,-24 112,-35 66,-21 62,46 276,46 213,0 423,-210 423,-424 0,-149 -28,-239 -133,-344 -295,-295 -768,-58 -768,291z"/>
   <path class="fil0" d="M547 651c0,91 71,172 115,223 23,26 62,55 96,74 54,30 98,41 158,41 52,0 100,-55 100,-108 0,-22 -91,-63 -115,-69 -22,15 -39,40 -54,62 -66,-16 -162,-89 -177,-154 55,-82 54,-18 18,-142 -14,-49 -15,-43 -72,-43 -35,0 -69,73 -69,116z"/>
  </g>
  <path class="fil1" d="M418 0l689 0c115,0 219,47 295,123 76,75 123,180 123,295l0 719c0,115 -47,219 -123,295 -76,76 -180,123 -295,123l-689 0c-115,0 -220,-47 -295,-123 -76,-76 -123,-180 -123,-295l0 -719c0,-115 47,-220 123,-295 75,-76 180,-123 295,-123zm689 94l-689 0c-89,0 -170,36 -229,95 -59,59 -95,140 -95,229l0 719c0,89 36,170 95,228 59,59 140,96 229,96l689 0c89,0 170,-37 228,-96 59,-58 96,-139 96,-228l0 -719c0,-89 -37,-170 -96,-229 -58,-59 -139,-95 -228,-95z"/>
 </g>
</svg>
